<svg xmlns="http://www.w3.org/2000/svg" viewBox="0 0 120 120" width="120" height="120" role="img" aria-label="MuseLinn logo">
  <defs>
    <linearGradient id="ml-g" x1="0" y1="0" x2="1" y2="1">
      <stop offset="0" stop-color="#4FA8FF"/>
      <stop offset="1" stop-color="#5BC0BE"/>
    </linearGradient>
  </defs>
  <!-- dim background dot grid (design-language echo) -->
  <g fill="#4FA8FF" opacity="0.14">
    <circle cx="36" cy="12" r="7"/><circle cx="60" cy="12" r="7"/><circle cx="84" cy="12" r="7"/>
    <circle cx="60" cy="36" r="7"/>
    <circle cx="36" cy="60" r="7"/><circle cx="84" cy="60" r="7"/>
    <circle cx="36" cy="84" r="7"/><circle cx="60" cy="84" r="7"/><circle cx="84" cy="84" r="7"/>
    <circle cx="36" cy="108" r="7"/><circle cx="60" cy="108" r="7"/><circle cx="84" cy="108" r="7"/>
  </g>
  <!-- lit M -->
  <g fill="url(#ml-g)">
    <circle cx="12" cy="12" r="7"/><circle cx="108" cy="12" r="7"/>
    <circle cx="12" cy="36" r="7"/><circle cx="36" cy="36" r="7"/><circle cx="84" cy="36" r="7"/><circle cx="108" cy="36" r="7"/>
    <circle cx="12" cy="60" r="7"/><circle cx="60" cy="60" r="7"/><circle cx="108" cy="60" r="7"/>
    <circle cx="12" cy="84" r="7"/><circle cx="108" cy="84" r="7"/>
    <circle cx="12" cy="108" r="7"/><circle cx="108" cy="108" r="7"/>
  </g>
  <!-- the spark -->
  <circle cx="60" cy="60" r="7" fill="#5BC0BE"/>
</svg>
